<?xml version="1.0" encoding="UTF-8"?>
<svg width="68px" height="25px" viewBox="0 0 68 25" version="1.1" xmlns="http://www.w3.org/2000/svg" xmlns:xlink="http://www.w3.org/1999/xlink">
    <!-- Generator: Sketch 52.1 (67048) - http://www.bohemiancoding.com/sketch -->
    <title>Body</title>
    <desc>Created with Sketch.</desc>
    <g id="001" stroke="none" stroke-width="1" fill="none" fill-rule="evenodd">
        <g id="Body" transform="translate(-3.000000, 0.000000)" fill="#000000">
            <path d="M15.2692908,0 L58.7307092,9.32587341e-15 C59.5591535,1.13811097e-14 60.345069,0.366861599 60.8770743,1.00191299 L70.1480178,12.0685798 C71.1410738,13.2539844 70.9851443,15.0199758 69.7997396,16.0130318 C69.2957143,16.4352719 68.6591694,16.6666667 68.0016527,16.6666667 L5.99834731,16.6666667 C4.45195004,16.6666667 3.19834736,15.413064 3.19834736,13.8666667 C3.19834736,13.20915 3.42974215,12.5726051 3.85198225,12.0685798 L13.1229257,1.00191299 C13.654931,0.366861599 14.4408465,4.43899866e-16 15.2692908,-4.4408921e-16 Z" id="Rectangle"></path>
            <path d="M3.16955016,18.0555556 L3.16955016,21.4753624 C3.16955016,23.0217596 4.42315284,24.2753623 5.96955012,24.2753623 L68.0305199,24.2753623 C69.5769172,24.2753623 70.8305199,23.0217596 70.8305199,21.4753624 L70.8305199,18.0555556 L3.16955016,18.0555556 Z" id="Path-11"></path>
        </g>
    </g>
</svg>