<?xml version="1.0" encoding="UTF-8"?>
<svg width="48px" height="54px" viewBox="0 0 48 54" version="1.1" xmlns="http://www.w3.org/2000/svg" xmlns:xlink="http://www.w3.org/1999/xlink">
    <g id="001" stroke="none" stroke-width="1" fill="none" fill-rule="evenodd">
        <g id="Burner" fill="#ffffff" fill-rule="nonzero">
            <path d="M19.6363636,2.39807945e-16 C18.4313787,2.39807945e-16 17.4545455,0.96706494 17.4545455,2.16 C17.4545455,11.54304 6.54545455,17.28 6.54545455,30.24 C6.54545455,41.04 11.9498182,45.36 24,45.36 C19.1803636,45.36 15.2727273,39.33144 15.2727273,34.56 C15.2727273,30.24 17.4545455,25.92 17.4545455,25.92 C17.4545455,25.92 19.6363636,30.24 21.8181818,30.24 C26.1818182,30.24 26.1818182,17.28 26.1818182,17.28 C26.1818182,17.28 32.7272727,21.6 32.7272727,34.56 C32.7272727,39.33144 28.8196364,45.36 24,45.36 C36.0501818,45.36 41.4545455,41.04 41.4545455,30.24 C41.4545455,13.6266663 22.4784567,1.40060383 21,0.4725 C20.6128462,0.166257444 20.1319205,-0.00038333478 19.6363636,2.39807945e-16 Z M6.54545455,47.52 C2.93018182,47.52 0,50.42088 0,54 L48,54 C48,50.42088 45.0698182,47.52 41.4545455,47.52 L39.2727273,47.52 C39.2727273,48.71232 38.2952727,49.68 37.0909091,49.68 C35.8865455,49.68 34.9090909,48.71232 34.9090909,47.52 L30.5454545,47.52 C30.5454545,48.71232 29.568,49.68 28.3636364,49.68 C27.1592727,49.68 26.1818182,48.71232 26.1818182,47.52 L21.8181818,47.52 C21.8181818,48.71232 20.8407273,49.68 19.6363636,49.68 C18.432,49.68 17.4545455,48.71232 17.4545455,47.52 L13.0909091,47.52 C13.0909091,48.71232 12.1134545,49.68 10.9090909,49.68 C9.70472727,49.68 8.72727273,48.71232 8.72727273,47.52 L6.54545455,47.52 Z" id="Shape"></path>
        </g>
    </g>
</svg>