<?xml version="1.0" encoding="UTF-8"?>
<svg width="50px" height="50px" viewBox="0 0 50 50" version="1.1" xmlns="http://www.w3.org/2000/svg" xmlns:xlink="http://www.w3.org/1999/xlink">
    <!-- Generator: Sketch 52.1 (67048) - http://www.bohemiancoding.com/sketch -->
    <title>CRC</title>
    <desc>Created with Sketch.</desc>
    <g id="001" stroke="none" stroke-width="1" fill="none" fill-rule="evenodd">
        <g id="CRC" fill="#000000" fill-rule="nonzero">
            <path d="M4.16666667,0 C1.86458333,0 0,1.86458333 0,4.16666667 L0,33.3333333 C0,35.6354167 1.86458333,37.5 4.16666667,37.5 L6.25,37.5 L6.25,0 L4.16666667,0 Z M43.75,0 L43.75,37.5 L45.8333333,37.5 C48.1354167,37.5 50,35.6354167 50,33.3333333 L50,4.16666667 C50,1.86458333 48.1354167,0 45.8333333,0 L43.75,0 Z M12.5,4.16666667 C11.35,4.16666667 10.4166667,5.1 10.4166667,6.25 L10.4166667,39.5833333 C9.26666667,39.5833333 8.33333333,40.5166667 8.33333333,41.6666667 C8.33333333,42.8166667 9.26666667,43.75 10.4166667,43.75 L10.4166667,47.9166667 C10.4166667,49.0666667 11.35,50 12.5,50 C13.65,50 14.5833333,49.0666667 14.5833333,47.9166667 L14.5833333,43.75 C15.7333333,43.75 16.6666667,42.8166667 16.6666667,41.6666667 C16.6666667,40.5166667 15.7333333,39.5833333 14.5833333,39.5833333 L14.5833333,6.25 C14.5833333,5.1 13.65,4.16666667 12.5,4.16666667 Z M20.8333333,4.16666667 C19.6833333,4.16666667 18.75,5.1 18.75,6.25 L18.75,31.25 C18.75,32.4 19.6833333,33.3333333 20.8333333,33.3333333 C21.9833333,33.3333333 22.9166667,32.4 22.9166667,31.25 L22.9166667,6.25 C22.9166667,5.1 21.9833333,4.16666667 20.8333333,4.16666667 Z M29.1666667,4.16666667 C28.0166667,4.16666667 27.0833333,5.1 27.0833333,6.25 L27.0833333,31.25 C27.0833333,32.4 28.0166667,33.3333333 29.1666667,33.3333333 C30.3166667,33.3333333 31.25,32.4 31.25,31.25 L31.25,6.25 C31.25,5.1 30.3166667,4.16666667 29.1666667,4.16666667 Z M37.5,4.16666667 C36.35,4.16666667 35.4166667,5.1 35.4166667,6.25 L35.4166667,31.25 C35.4166667,32.4 36.35,33.3333333 37.5,33.3333333 C38.65,33.3333333 39.5833333,32.4 39.5833333,31.25 L39.5833333,6.25 C39.5833333,5.1 38.65,4.16666667 37.5,4.16666667 Z" id="Shape"></path>
        </g>
    </g>
</svg>