<?xml version="1.0" encoding="UTF-8"?>
<svg width="91px" height="103px" viewBox="0 0 91 103" version="1.1" xmlns="http://www.w3.org/2000/svg" xmlns:xlink="http://www.w3.org/1999/xlink">
    <!-- Generator: Sketch 52.1 (67048) - http://www.bohemiancoding.com/sketch -->
    <title>Double</title>
    <desc>Created with Sketch.</desc>
    <g id="001" stroke="none" stroke-width="1" fill="none" fill-rule="evenodd">
        <path d="M29.75,0 C29.75,0 18.25,16.5658333 18.25,22.8888889 C18.25,27.2206111 20.7045312,30.9460467 24.2695312,32.8916023 C25.3907813,29.1778801 29.75,22.8888889 29.75,22.8888889 C29.75,22.8888889 34.1092187,29.1778801 35.2304688,32.8916023 C38.7954687,30.9460467 41.25,27.2206111 41.25,22.8888889 C41.25,16.5658333 29.75,0 29.75,0 Z M64.25,0 C64.25,0 52.75,16.5658333 52.75,22.8888889 C52.75,27.2206111 55.2045313,30.9460467 58.7695312,32.8916023 C59.8907813,29.1778801 64.25,22.8888889 64.25,22.8888889 C64.25,22.8888889 68.6092187,29.1778801 69.7304688,32.8916023 C73.2954687,30.9460467 75.75,27.2206111 75.75,22.8888889 C75.75,16.5658333 64.25,0 64.25,0 Z M11.5,45.7777778 C9.42634348,45.7485928 7.49753215,46.8328142 6.4521456,48.6152724 C5.40675905,50.3977306 5.40675905,52.6022694 6.4521456,54.3847276 C7.49753215,56.1671858 9.42634348,57.2514072 11.5,57.2222222 C11.5,57.2222222 0.22791275,74.1138674 0.03369155,96.7077929 C0.032008525,96.9035845 0,97.0811279 0,97.2777778 C0,100.438074 2.57436269,103 5.75,103 L85.25,103 C88.4256373,103 91,100.438074 91,97.2777778 C90.9998615,97.0724271 90.9886155,96.8672327 90.9663108,96.6630852 C90.757189,74.0922146 79.5,57.2222222 79.5,57.2222222 C81.5736565,57.2514072 83.5024678,56.1671858 84.5478544,54.3847276 C85.593241,52.6022694 85.593241,50.3977306 84.5478544,48.6152724 C83.5024678,46.8328142 81.5736565,45.7485928 79.5,45.7777778 L11.5,45.7777778 Z M23,57.2222222 L34.5,57.2222222 L34.5,62.9444444 C34.5,66.1031111 31.924,68.6666667 28.75,68.6666667 C25.576,68.6666667 23,66.1031111 23,62.9444444 L23,57.2222222 Z M57.5,57.2222222 L69,57.2222222 L69,62.9444444 C69,66.1031111 66.424,68.6666667 63.25,68.6666667 C60.076,68.6666667 57.5,66.1031111 57.5,62.9444444 L57.5,57.2222222 Z" id="Double" fill="#FFFFFF" fill-rule="nonzero"></path>
    </g>
</svg>