<?xml version="1.0" encoding="UTF-8"?>
<svg width="52px" height="60px" viewBox="0 0 52 60" version="1.1" xmlns="http://www.w3.org/2000/svg" xmlns:xlink="http://www.w3.org/1999/xlink">
    <!-- Generator: Sketch 52.1 (67048) - http://www.bohemiancoding.com/sketch -->
    <title>Gas Stove cock</title>
    <desc>Created with Sketch.</desc>
    <g id="001" stroke="none" stroke-width="1" fill="none" fill-rule="evenodd">
        <g id="Gas-Stove-cock" fill="#000000" fill-rule="nonzero">
            <path d="M26,0 C11.518,0 0,4.88457887 0,11.3671876 C0,17.8576226 11.518,23.4782609 26,23.4782609 C40.482,23.4782609 52,17.8576226 52,11.3671876 C52,4.88457887 40.482,0 26,0 Z M0,20.0543478 L0,27.0193617 C0,29.6692748 1.94223588,32.1671557 5.2,34.2034643 L5.2,46.9565217 C5.2,54.1591304 14.5132,60 26,60 C37.4868,60 46.8,54.1591304 46.8,46.9565217 L46.8,34.2034643 C50.0577636,32.1671557 52,29.6692748 52,27.0193617 L52,20.0543478 C46.5036,25.3447826 37.1046,28.6956522 26,28.6956522 C14.8954,28.6956522 5.4964,25.3447826 0,20.0543478 Z M10.5371094,36.700067 C12.0670724,37.2360235 13.7270198,37.6947391 15.4933584,38.0655574 C15.2382126,41.5575183 14.1770174,43.8495365 12.91875,43.3440887 C11.7318817,42.8681843 10.830514,40.0947339 10.5371094,36.700067 Z M41.4628916,36.700067 C41.1694868,40.0947339 40.2681188,42.8681843 39.08125,43.3440887 C37.8229826,43.8495365 36.7617874,41.5575183 36.5066416,38.0655574 C38.2729802,37.6947391 39.9329268,37.2360235 41.4628916,36.700067 Z M20.9523444,38.8909643 C22.583808,39.0433696 24.269271,39.1304348 26,39.1304348 C27.7377646,39.1304348 29.4303386,39.0445774 31.0679694,38.8909643 C30.5690502,43.5376383 28.6306852,46.9565217 26.1625,46.9565217 C23.6943304,46.9565217 21.5194148,43.5375965 20.9523444,38.8909643 Z" id="Shape"></path>
        </g>
    </g>
</svg>