<?xml version="1.0" encoding="utf-8"?>
<!-- Generator: Adobe Illustrator 15.0.0, SVG Export Plug-In . SVG Version: 6.00 Build 0)  -->
<!DOCTYPE svg PUBLIC "-//W3C//DTD SVG 1.1//EN" "http://www.w3.org/Graphics/SVG/1.1/DTD/svg11.dtd">
<svg version="1.1"  xmlns="http://www.w3.org/2000/svg" xmlns:xlink="http://www.w3.org/1999/xlink" x="0px" y="0px"
	 width="48px" height="48px" viewBox="0 0 48 48" enable-background="new 0 0 48 48" xml:space="preserve">
<path fill="#DD2C00" d="M39,28c0,8.395-6.606,15-15.001,15S9,36.395,9,28S22.479,12.6,20.959,5C24,5,39,15.841,39,28z"/>
<path fill="#FF5722" d="M33,32c0-7.599-9-15-9-15c0,6.08-9,8.921-9,15c0,5.036,3.963,9,9,9S33,37.036,33,32z"/>
<path fill="#FFC107" d="M18.999,35.406C19,32,24,30.051,24,27c0,0,4.999,3.832,4.999,8.406c0,2.525-2.237,4.574-5,4.574
	S18.998,37.932,18.999,35.406z"/>
</svg>
