<?xml version="1.0" encoding="UTF-8"?>
<svg width="101px" height="48px" viewBox="0 0 101 48" version="1.1" xmlns="http://www.w3.org/2000/svg" xmlns:xlink="http://www.w3.org/1999/xlink">
    <!-- Generator: Sketch 52.1 (67048) - http://www.bohemiancoding.com/sketch -->
    <title>Mixing Tube</title>
    <desc>Created with Sketch.</desc>
    <g id="001" stroke="none" stroke-width="1" fill="none" fill-rule="evenodd">
        <g id="Mixing-Tube" transform="translate(-1.000000, 0.000000)" fill="#000000">
            <g id="Group-11" transform="translate(70.738095, 26.400000)">
                <rect id="Rectangle" x="0" y="2.4" width="31.2619048" height="9.6"></rect>
                <rect id="Rectangle-Copy" x="28.0555556" y="0" width="3.20634921" height="14.4"></rect>
            </g>
            <g id="Group-11-Copy" transform="translate(16.261905, 33.900000) scale(-1, 1) translate(-16.261905, -33.900000) translate(0.261905, 26.400000)">
                <rect id="Rectangle" x="0" y="2.4" width="31.2619048" height="9.6"></rect>
                <rect id="Rectangle-Copy" x="28.0555556" y="0" width="3.20634921" height="14.4"></rect>
            </g>
            <path d="M51.5,0 C39.8914127,0 30.6587302,3.9076631 30.6587302,9.09375005 C30.6587302,14.2860981 39.8914127,18.7826087 51.5,18.7826087 C63.1085873,18.7826087 72.3412698,14.2860981 72.3412698,9.09375005 C72.3412698,3.9076631 63.1085873,0 51.5,0 Z M30.6587302,16.0434783 L30.6587302,21.6154894 C30.6587302,23.7354198 32.2156018,25.7337245 34.8269841,27.3627715 L34.8269841,37.5652174 C34.8269841,43.3273043 42.292327,48 51.5,48 C60.707673,48 68.1730159,43.3273043 68.1730159,37.5652174 L68.1730159,27.3627715 C70.7843978,25.7337245 72.3412698,23.7354198 72.3412698,21.6154894 L72.3412698,16.0434783 C67.9354254,20.2758261 60.4013063,22.9565217 51.5,22.9565217 C42.5986937,22.9565217 35.0645746,20.2758261 30.6587302,16.0434783 Z M39.1051433,29.3600536 C40.3315422,29.7888188 41.6621349,30.1557913 43.0780095,30.4524459 C42.8734879,33.2460146 42.0228473,35.0796292 41.0142361,34.675271 C40.0628576,34.2945475 39.3403326,32.0757871 39.1051433,29.3600536 Z M63.8948576,29.3600536 C63.659668,32.0757871 62.9371428,34.2945475 61.9857639,34.675271 C60.9771527,35.0796292 60.1265121,33.2460146 59.9219905,30.4524459 C61.3378651,30.1557913 62.6684572,29.7888188 63.8948576,29.3600536 Z M47.4538634,31.1127715 C48.7616239,31.2346957 50.1126696,31.3043478 51.5,31.3043478 C52.89297,31.3043478 54.2497159,31.2356619 55.5624199,31.1127715 C55.1624926,34.8301106 53.6087239,37.5652174 51.6302579,37.5652174 C49.6518045,37.5652174 47.9084198,34.8300772 47.4538634,31.1127715 Z" id="Shape" fill-rule="nonzero"></path>
        </g>
    </g>
</svg>