<?xml version="1.0" encoding="UTF-8"?>
<svg width="55px" height="62px" viewBox="0 0 55 62" version="1.1" xmlns="http://www.w3.org/2000/svg" xmlns:xlink="http://www.w3.org/1999/xlink">
    <!-- Generator: Sketch 52.1 (67048) - http://www.bohemiancoding.com/sketch -->
    <title>Panspot</title>
    <desc>Created with Sketch.</desc>
    <g id="001" stroke="none" stroke-width="1" fill="none" fill-rule="evenodd">
        <g id="Panspot" transform="translate(0.000000, -2.000000)" fill="#000000" fill-rule="nonzero">
            <path d="M18.83789,2.52499994 C17.6508505,2.49066321 16.6039908,3.31607034 16.3330075,4.5 C16.3330075,4.5 15,9.69091917 15,13.92 C15,17.700161 16.6201325,20.4193884 17.8759775,22.4849999 C19.13182,24.5506125 20,25.9548237 20,28.16 C20,32.9345613 17.8076175,37.1699994 17.8076175,37.1699994 C17.3597035,37.9736364 17.3701086,38.9622256 17.8348335,39.7557903 C18.2995584,40.549355 19.1462784,41.0243935 20.049546,40.9983189 C20.9528137,40.9722442 21.7720543,40.4491142 22.1923825,39.6300006 C22.1923825,39.6300006 25,34.5060787 25,28.16 C25,24.4720563 23.36818,21.8263885 22.1240225,19.78 C20.8798675,17.7336115 20,16.276159 20,13.92 C20,10.9042808 21.18164,5.74 21.18164,5.74 C21.3771583,4.98449684 21.2249601,4.17892254 20.7683733,3.55260708 C20.3117864,2.92629163 19.6008269,2.54784388 18.83789,2.52499994 Z M32.5,5.10499994 C31.1192881,5.10499994 30,6.25115098 30,7.66499994 C30,9.0788489 31.1192881,10.2249999 32.5,10.2249999 C33.8807119,10.2249999 35,9.0788489 35,7.66499994 C35,6.25115098 33.8807119,5.10499994 32.5,5.10499994 Z M40,12.7849999 C38.6192881,12.7849999 37.5,13.931151 37.5,15.3449999 C37.5,16.7588489 38.6192881,17.9049999 40,17.9049999 C41.3807119,17.9049999 42.5,16.7588489 42.5,15.3449999 C42.5,13.931151 41.3807119,12.7849999 40,12.7849999 Z M29.91211,15.3299999 C29.0751352,15.3551611 28.3060261,15.8076816 27.8632983,16.5354588 C27.4205706,17.263236 27.3630085,18.1696373 27.70996,18.9500001 C27.70996,18.9500001 30,24.318889 30,31.4300006 C30,34.4496486 27.7392575,39.8700006 27.7392575,39.8700006 C27.322209,40.7023038 27.3816593,41.7012652 27.8943193,42.4755518 C28.4069793,43.2498384 29.2912246,43.6761704 30.2006612,43.5875365 C31.1100977,43.4989027 31.8999274,42.909415 32.2607425,42.0499994 C32.2607425,42.0499994 35,36.5869901 35,31.4300006 C35,23.1811123 32.29004,16.8899999 32.29004,16.8899999 C31.88753,15.9175015 30.9431164,15.2979353 29.91211,15.3299999 Z M7.5,17.9049999 C6.11928813,17.9049999 5,19.051151 5,20.4649999 C5,21.8788489 6.11928813,23.0249999 7.5,23.0249999 C8.88071187,23.0249999 10,21.8788489 10,20.4649999 C10,19.051151 8.88071187,17.9049999 7.5,17.9049999 Z M12.6171875,28.534999 C12.5341501,28.532429 12.4510391,28.5340985 12.368164,28.5400013 C12.0586559,28.5608984 11.7556472,28.6405873 11.4746095,28.774999 C6.420152,31.096617 2.5,34.7813914 2.5,39.68 C2.5,44.5786086 6.42015225,48.2633728 11.4746095,50.585001 C12.290206,50.9659077 13.2425291,50.8705553 13.9706228,50.3350849 C14.6987166,49.7996145 15.0911468,48.9059795 14.9991719,47.9928914 C14.907197,47.0798033 14.3448937,46.2870096 13.52539,45.9150003 C9.39484825,44.0177485 7.5,41.5961114 7.5,39.68 C7.5,37.7638886 9.3948485,35.3422515 13.52539,33.4449997 C14.600537,32.9704035 15.2100891,31.7953728 14.9922047,30.617428 C14.7743204,29.4394833 13.787354,28.5741054 12.6171875,28.534999 Z M42.558595,28.534999 C42.4755571,28.5324289 42.3924456,28.5340984 42.30957,28.5400013 C41.1559128,28.6146463 40.2026317,29.4893907 40.0041278,30.6555082 C39.8056238,31.8216256 40.4136559,32.975057 41.47461,33.4449997 C45.6051525,35.3422515 47.5,37.7638886 47.5,39.68 C47.5,41.4772659 45.906645,43.6831565 42.29004,45.534999 C38.6734325,47.3868442 33.3759575,48.64 27.5,48.64 C25.881745,48.64 24.30759,48.5369344 22.7832025,48.36 C21.8952217,48.2562928 21.0206691,48.6455989 20.4890197,49.3812528 C19.9573704,50.1169068 19.849406,51.0871293 20.2058005,51.9264033 C20.562195,52.7656773 21.3287959,53.3464788 22.2167975,53.4499994 C23.91241,53.6468173 25.678255,53.76 27.5,53.76 C34.0515425,53.76 39.9998475,52.4327552 44.5263675,50.1150003 C49.052885,47.7972454 52.5,44.2443341 52.5,39.68 C52.5,34.7813914 48.5798475,31.0966272 43.52539,28.774999 C43.2220773,28.6294939 42.8933058,28.5478787 42.558595,28.534999 Z M2.96875,51.174999 C1.95238655,51.1890824 1.04550851,51.8318386 0.674668074,52.8009458 C0.303827638,53.7700531 0.542844687,54.8725998 1.279297,55.5900006 C6.634383,60.9472026 16.341645,64 27.5,64 C29.29036,64 31.0410025,63.913687 32.74414,63.7500006 C33.6577275,63.6971552 34.4701446,63.1374821 34.8622278,62.2908525 C35.2543109,61.444223 35.1634197,60.4458972 34.6252614,59.6880743 C34.087103,58.9302514 33.1876553,58.5340034 32.2802725,58.654999 C30.73341,58.8036506 29.13464,58.88 27.5,58.88 C17.293355,58.88 8.5254215,55.6863974 4.77050775,51.9299994 C4.29419802,51.4394052 3.64428222,51.1670675 2.96875,51.174999 Z M51.9580075,51.174999 C51.3078819,51.186933 50.6878701,51.4577487 50.2294925,51.9299994 C48.4323825,53.7261235 45.4547225,55.450537 41.71875,56.705001 C40.8698291,56.9906199 40.2342518,57.7183841 40.0515136,58.6140607 C39.8687754,59.5097373 40.1666494,60.4371978 40.8328922,61.0469605 C41.4991351,61.6567232 42.4324883,61.856114 43.28125,61.5699994 C47.5352775,60.1415834 51.1378125,58.1714765 53.7207025,55.5900006 C54.4668944,54.8631824 54.7015401,53.742202 54.3118147,52.7660615 C53.9220894,51.789921 52.9877308,51.1583387 51.9580075,51.174999 Z" id="Shape"></path>
        </g>
    </g>
</svg>