<?xml version="1.0" encoding="UTF-8"?>
<svg width="51px" height="51px" viewBox="0 0 51 51" version="1.1" xmlns="http://www.w3.org/2000/svg" xmlns:xlink="http://www.w3.org/1999/xlink">
    <!-- Generator: Sketch 52.1 (67048) - http://www.bohemiancoding.com/sketch -->
    <title>Pipes</title>
    <desc>Created with Sketch.</desc>
    <g id="001" stroke="none" stroke-width="1" fill="none" fill-rule="evenodd">
        <g id="Pipes" transform="translate(0.000000, -2.000000)" fill="#000000" fill-rule="nonzero">
            <path d="M2.086875,2.09101557 C0.917660747,2.10929225 -0.0160116486,3.07075254 -1.83230167e-16,4.24 L-1.83230167e-16,12.72 C-0.0108126138,13.4845481 0.390875628,14.1956925 1.05125044,14.581122 C1.71162525,14.9665514 2.52837475,14.9665514 3.18874956,14.581122 C3.84912437,14.1956925 4.25081261,13.4845481 4.24,12.72 L16.96,12.72 C16.9491874,13.4845481 17.3508756,14.1956925 18.0112504,14.581122 C18.6716253,14.9665514 19.4883747,14.9665514 20.1487496,14.581122 C20.8091244,14.1956925 21.2108126,13.4845481 21.2,12.72 L21.2,4.24 C21.207847,3.66696333 20.9833854,3.11515639 20.5777594,2.71031049 C20.1721335,2.30546459 19.6198955,2.08206551 19.046875,2.09101557 C17.8776607,2.10929225 16.9439884,3.07075254 16.96,4.24 L4.24,4.24 C4.24784704,3.66696333 4.02338537,3.11515639 3.61775943,2.71031049 C3.21213349,2.30546459 2.6598955,2.08206551 2.086875,2.09101557 Z M25.44,4.34765614 L25.44,12.8649219 C33.8034,13.9100819 40.28,21.03252 40.28,29.68 L40.28,31.8 C39.5154519,31.7891874 38.8043075,32.1908756 38.418878,32.8512504 C38.0334486,33.5116253 38.0334486,34.3283747 38.418878,34.9887496 C38.8043075,35.6491244 39.5154519,36.0508126 40.28,36.04 L48.76,36.04 C49.5245481,36.0508126 50.2356925,35.6491244 50.621122,34.9887496 C51.0065514,34.3283747 51.0065514,33.5116253 50.621122,32.8512504 C50.2356925,32.1908756 49.5245481,31.7891874 48.76,31.8 L48.76,29.68 C48.76,16.3452 38.49496,5.42885636 25.44,4.34765614 Z M2.086875,19.0510154 C0.917660663,19.069292 -0.0160117667,20.0307525 -1.83230167e-16,21.2 L-1.83230167e-16,29.68 C-0.0108126138,30.4445481 0.390875628,31.1556925 1.05125044,31.541122 C1.71162525,31.9265514 2.52837475,31.9265514 3.18874956,31.541122 C3.84912437,31.1556925 4.25081261,30.4445481 4.24,29.68 L19.08,29.68 C21.4712922,29.68 23.32,31.5287078 23.32,33.92 L23.32,48.76 C22.5554519,48.7491874 21.8443075,49.1508756 21.458878,49.8112504 C21.0734486,50.4716253 21.0734486,51.2883747 21.458878,51.9487496 C21.8443075,52.6091244 22.5554519,53.0108126 23.32,53 L31.8,53 C32.5645481,53.0108126 33.2756925,52.6091244 33.661122,51.9487496 C34.0465514,51.2883747 34.0465514,50.4716253 33.661122,49.8112504 C33.2756925,49.1508756 32.5645481,48.7491874 31.8,48.76 L31.8,33.92 C31.8,26.9451322 26.0548678,21.2 19.08,21.2 L4.24,21.2 C4.2478471,20.6269633 4.02338545,20.0751563 3.61775951,19.6703104 C3.21213356,19.2654644 2.65989554,19.0420653 2.086875,19.0510154 Z M40.28,40.28 L40.28,48.76 C39.5154519,48.7491874 38.8043075,49.1508756 38.418878,49.8112504 C38.0334486,50.4716253 38.0334486,51.2883747 38.418878,51.9487496 C38.8043075,52.6091244 39.5154519,53.0108126 40.28,53 L48.76,53 C49.5245481,53.0108126 50.2356925,52.6091244 50.621122,51.9487496 C51.0065514,51.2883747 51.0065514,50.4716253 50.621122,49.8112504 C50.2356925,49.1508756 49.5245481,48.7491874 48.76,48.76 L48.76,40.28 L40.28,40.28 Z" id="Shape"></path>
        </g>
    </g>
</svg>