<?xml version="1.0" encoding="UTF-8"?>
<svg width="46px" height="54px" viewBox="0 0 46 54" version="1.1" xmlns="http://www.w3.org/2000/svg" xmlns:xlink="http://www.w3.org/1999/xlink">
    <!-- Generator: Sketch 52.1 (67048) - http://www.bohemiancoding.com/sketch -->
    <title>Regulator Knob</title>
    <desc>Created with Sketch.</desc>
    <g id="001" stroke="none" stroke-width="1" fill="none" fill-rule="evenodd">
        <g id="Regulator-Knob" fill="#000000" fill-rule="nonzero">
            <path d="M23,3 C12.417,3 4,6.57058684 4,11.3093203 C4,16.0537748 12.417,20.1624149 23,20.1624149 C33.583,20.1624149 42,16.0537748 42,11.3093203 C42,6.57058684 33.583,3 23,3 Z M23.5,3.55271368e-15 C17.0945,3.55271368e-15 12,2.08046878 12,4.84157989 C12,7.60602444 17.0945,10 23.5,10 C29.9055,10 35,7.60602444 35,4.84157989 C35,2.08046878 29.9055,3.55271368e-15 23.5,3.55271368e-15 Z M4,17.6595628 L4,22.7509305 C4,24.687995 4,34.2014104 5.92966312,37.7107032 C6.47279814,39.9035677 11.9972917,41 22.5031438,41 C33.0089958,41 39.0413975,39.9035677 40.6003487,37.7107032 C42,35.2613682 42,24.687995 42,22.7509305 L42,17.6595628 C37.9834,21.5268269 31.1149,23.9762849 23,23.9762849 C14.8851,23.9762849 8.0166,21.5268269 4,17.6595628 Z" id="Shape"></path>
            <path d="M23,43.1673178 C16.9991759,43.1673178 13.4628688,43.1673178 7.45300763,42.4 C2.40082854,41.7549557 1.42108547e-14,40.0849924 1.42108547e-14,43.1673178 C1.42108547e-14,48.9726513 10.189,54 23,54 C35.811,54 46,48.9726513 46,43.1673178 C46,39.518305 43.1051482,42.4 35.8412059,43.1673178 C31.6833901,43.6065236 27.748769,43.1673178 23,43.1673178 Z" id="Path-Copy-10"></path>
        </g>
    </g>
</svg>